<svg width="1500" height="1682" viewBox="0 0 1500 1682" fill="none" xmlns="http://www.w3.org/2000/svg">
<g clip-path="url(#clip0_1_2)">
<g clip-path="url(#clip1_1_2)">
<g clip-path="url(#clip2_1_2)">
<g clip-path="url(#clip3_1_2)">
<path d="M98.041 1061.62L115.451 1083.38L106.746 1055.09C104.57 1042.03 89.3358 1057.27 98.041 1061.62ZM117.628 1048.56C124.156 1059.44 130.685 1070.33 130.685 1081.21C130.685 1096.44 143.743 1102.97 154.625 1107.32C139.39 1089.91 130.685 1042.03 117.628 1048.56ZM953.322 125.817C990.319 125.817 1025.14 121.464 1064.31 130.169C1160.07 154.108 1240.59 201.987 1295 269.452L1447.34 513.196C1453.87 574.132 1466.93 641.597 1464.75 715.591C1479.98 715.591 1477.81 693.828 1495.22 689.475C1477.81 733.001 1469.1 787.408 1464.75 850.521C1453.87 815.7 1464.75 763.469 1466.93 735.177C1451.69 759.116 1442.99 741.706 1442.99 730.825C1445.16 713.414 1436.46 715.591 1429.93 709.062C1405.99 687.299 1390.76 663.36 1373.35 626.363C1384.23 598.071 1386.4 556.722 1351.58 534.959C1340.7 528.43 1327.64 517.548 1321.12 500.138C1312.41 476.199 1297.18 447.907 1301.53 410.91C1303.7 400.029 1268.88 434.849 1249.3 419.615C1164.42 360.856 1079.55 293.391 977.262 236.807C922.854 236.807 883.681 217.221 864.094 193.281C846.684 171.519 859.742 143.227 885.857 141.051C901.091 141.051 918.502 136.698 931.56 145.403C933.736 136.698 942.441 125.817 953.322 125.817ZM737.87 75.7619L742.222 77.9382C763.985 82.2908 774.867 112.759 798.806 101.877C798.806 117.111 800.982 132.345 796.63 143.227C790.101 160.637 770.514 160.637 755.28 160.637C609.469 151.932 524.593 212.868 435.366 265.099C411.426 280.333 385.311 291.214 365.724 310.801C272.144 397.853 169.858 478.375 145.919 639.421L126.333 817.876C124.156 837.463 102.394 857.049 106.746 880.989L121.98 987.627C106.746 972.393 98.041 991.979 102.394 1000.68C104.57 1007.21 113.275 1028.98 126.333 1009.39C143.743 1042.03 161.153 1105.15 185.093 1133.44C259.086 1220.49 354.843 1298.84 433.189 1377.18C452.776 1372.83 468.01 1372.83 472.363 1359.77C478.891 1372.83 465.834 1385.89 454.952 1388.06C489.773 1409.83 528.946 1429.41 581.177 1433.77C648.642 1438.12 711.754 1449 770.514 1464.23C800.982 1455.53 831.45 1451.18 864.094 1449C874.976 1449 881.505 1431.59 894.563 1427.24L896.739 1405.47C909.797 1425.06 907.62 1398.95 898.915 1385.89C914.149 1398.95 918.502 1409.83 925.031 1418.53C925.031 1412 942.441 1388.06 942.441 1416.36L946.793 1388.06C953.322 1383.71 955.499 1412 962.027 1392.42C968.556 1372.83 981.614 1388.06 994.672 1381.53C990.319 1390.24 992.496 1407.65 1007.73 1396.77L1025.14 1381.53C1036.02 1407.65 1053.43 1396.77 1062.14 1392.42C1157.89 1331.48 1253.65 1259.66 1345.05 1187.85L1342.88 1216.14L1353.76 1181.32C1364.64 1192.2 1373.35 1183.49 1377.7 1176.96C1390.76 1155.2 1408.17 1133.44 1436.46 1113.85C1401.64 1207.43 1360.29 1281.43 1308.06 1342.36L1286.29 1368.48C1286.29 1383.71 1281.94 1403.3 1264.53 1405.47C1255.83 1407.65 1238.42 1401.12 1225.36 1414.18C1218.83 1422.88 1240.59 1440.29 1223.18 1427.24C1207.95 1416.36 1192.71 1427.24 1175.3 1431.59C1162.25 1435.94 1184.01 1449 1188.36 1457.71C1192.71 1466.41 1197.07 1475.12 1194.89 1486L1170.95 1459.88C1142.66 1475.12 1125.25 1503.41 1101.31 1525.17C1090.43 1533.88 1094.78 1549.11 1094.78 1562.17C1079.55 1562.17 1062.14 1557.81 1053.43 1566.52C1046.9 1575.22 1049.08 1588.28 1049.08 1601.34C1027.32 1599.16 1025.14 1566.52 1005.55 1573.05C985.967 1577.4 964.204 1579.58 946.793 1590.46C959.851 1616.57 925.031 1601.34 929.383 1605.69C896.739 1586.11 868.447 1570.87 833.627 1583.93C759.633 1559.99 668.229 1570.87 600.764 1579.58C600.764 1568.7 602.94 1557.81 598.587 1555.64C594.235 1566.52 581.177 1562.17 583.353 1562.17C542.004 1533.88 500.654 1516.46 457.129 1492.53C417.955 1496.88 380.958 1477.29 370.077 1466.41C339.609 1438.12 304.788 1453.35 276.497 1446.82C215.561 1431.59 193.798 1368.48 187.269 1324.95C182.916 1303.19 165.506 1294.48 158.977 1296.66C130.685 1205.26 87.1595 1122.56 52.3389 1037.68C43.6338 1015.92 45.8101 994.156 45.8101 970.216C56.6915 974.569 67.573 972.393 65.3967 957.159C54.5152 885.341 28.3998 830.934 0.108017 778.703C15.342 704.709 17.5183 617.658 52.3389 552.369C82.807 493.609 139.39 463.141 178.564 413.087C191.621 395.676 191.621 371.737 204.679 356.503C248.205 312.977 291.731 267.275 339.609 228.102C361.372 210.692 387.487 228.102 420.132 221.573C431.013 182.4 474.539 147.579 515.888 158.461C533.299 162.813 568.119 117.111 579.001 112.759C596.411 106.23 587.706 130.169 587.706 145.403C629.055 112.759 685.639 95.3485 737.87 75.7619Z" fill="black"/>
<g clip-path="url(#clip4_1_2)">
<g clip-path="url(#clip5_1_2)">
<g clip-path="url(#clip6_1_2)">
<g clip-path="url(#clip7_1_2)">
<g clip-path="url(#clip8_1_2)">
<g clip-path="url(#clip9_1_2)">
<g clip-path="url(#clip10_1_2)">
<path d="M224.65 1006.77C213.286 1006.77 205.158 1004.97 200.267 1001.37C195.405 997.767 192.804 991.88 192.465 983.71C192.182 978.603 191.999 972.574 191.914 965.624C191.801 958.701 191.801 951.751 191.914 944.771C191.999 937.764 192.182 931.664 192.465 926.473C192.804 918.103 195.476 912.117 200.479 908.514C205.483 904.911 213.54 903.11 224.65 903.11C235.138 903.11 242.729 904.869 247.421 908.387C252.114 911.933 254.715 917.749 255.224 925.834C255.337 928.274 255.464 932.501 255.605 938.516C255.747 944.559 255.549 950.97 255.012 957.751H205.398C205.398 962.12 205.441 966.546 205.526 971.028C205.582 975.539 205.709 980.22 205.907 985.071C205.992 988.873 207.448 991.511 210.275 992.987C213.102 994.433 217.766 995.157 224.268 995.157C230.686 995.157 235.195 994.433 237.796 992.987C240.425 991.511 241.881 988.873 242.163 985.071C242.361 981.27 242.361 976.078 242.163 969.496H255.012C255.351 971.51 255.507 973.851 255.478 976.518C255.422 979.184 255.337 981.582 255.224 983.71C254.715 991.88 252.241 997.767 247.803 1001.37C243.365 1004.97 235.647 1006.77 224.65 1006.77ZM205.398 946.729H242.375C242.517 942.02 242.587 937.523 242.587 933.239C242.587 928.927 242.446 925.976 242.163 924.387C241.881 920.926 240.396 918.458 237.711 916.983C235.025 915.479 230.672 914.727 224.65 914.727C217.978 914.727 213.201 915.479 210.317 916.983C207.462 918.458 205.992 920.926 205.907 924.387C205.709 928.416 205.554 932.26 205.441 935.92C205.356 939.608 205.342 943.211 205.398 946.729ZM333.884 939.963H320.824C321.106 937.551 321.234 934.785 321.205 931.664C321.149 928.544 321.121 926.118 321.121 924.387C321.064 920.728 319.636 918.203 316.838 916.813C314.039 915.423 309.473 914.727 303.141 914.727C296.639 914.727 292.017 915.423 289.275 916.813C286.504 918.203 285.077 920.728 284.992 924.387C284.511 935.282 284.271 945.41 284.271 954.772C284.271 964.162 284.511 974.262 284.992 985.071C285.077 988.873 286.504 991.511 289.275 992.987C292.017 994.433 296.597 995.157 303.014 995.157C309.375 995.157 313.968 994.433 316.795 992.987C319.622 991.511 321.064 988.873 321.121 985.071C321.121 983.199 321.149 980.929 321.205 978.262C321.234 975.596 321.106 972.674 320.824 969.496H333.884C334.224 971.51 334.379 973.851 334.351 976.518C334.323 979.184 334.238 981.582 334.096 983.71C333.672 991.88 331.128 997.767 326.464 1001.37C321.799 1004.97 313.982 1006.77 303.014 1006.77C291.989 1006.77 284.073 1004.97 279.267 1001.37C274.461 997.767 271.889 991.88 271.55 983.71C271.267 978.603 271.083 972.574 270.998 965.624C270.885 958.701 270.885 951.751 270.998 944.771C271.083 937.764 271.267 931.664 271.55 926.473C271.889 918.103 274.49 912.117 279.352 908.514C284.243 904.911 292.172 903.11 303.141 903.11C314.025 903.11 321.87 904.869 326.676 908.387C331.481 911.933 333.955 917.749 334.096 925.834C334.238 927.934 334.323 930.317 334.351 932.984C334.379 935.65 334.224 937.977 333.884 939.963ZM381.378 1006.77C370.126 1006.77 362.197 1004.85 357.589 1000.99C352.952 997.1 350.465 990.646 350.125 981.624C349.701 976.518 349.419 970.829 349.277 964.56C349.136 958.29 349.136 951.963 349.277 945.58C349.419 939.225 349.701 933.452 350.125 928.26C350.465 919.238 352.966 912.784 357.631 908.897C362.295 905.039 370.211 903.11 381.378 903.11C392.714 903.11 400.629 905.039 405.124 908.897C409.647 912.784 412.093 919.238 412.46 928.26C412.856 933.367 413.124 939.055 413.266 945.325C413.407 951.594 413.407 957.907 413.266 964.262C413.124 970.588 412.856 976.376 412.46 981.624C412.093 990.561 409.647 996.987 405.124 1000.9C400.629 1004.82 392.714 1006.77 381.378 1006.77ZM381.378 995.157C387.738 995.157 392.261 994.377 394.947 992.816C397.633 991.256 399.089 988.674 399.315 985.071C399.993 974.262 400.332 964.219 400.332 954.942C400.332 945.665 399.993 935.622 399.315 924.813C399.089 921.153 397.661 918.557 395.032 917.025C392.431 915.493 387.88 914.727 381.378 914.727C374.904 914.727 370.338 915.493 367.681 917.025C365.023 918.557 363.582 921.153 363.356 924.813C362.734 935.622 362.409 945.679 362.38 954.985C362.352 964.319 362.677 974.347 363.356 985.071C363.497 988.674 364.967 991.256 367.766 992.816C370.564 994.377 375.102 995.157 381.378 995.157ZM444.518 923.877V1005.54H431.161V904.472H444.518V913.919H447.105C449.451 910.231 452.193 907.507 455.331 905.748C458.469 903.989 462.808 903.11 468.349 903.11C479.459 903.11 486.287 906.982 488.831 914.727H491.629C493.919 911.124 496.817 908.287 500.322 906.216C503.856 904.145 508.379 903.11 513.892 903.11C521.27 903.11 526.797 904.826 530.472 908.259C534.119 911.663 535.942 917.394 535.942 925.451V1005.54H522.67V924.302C522.557 920.841 521.496 918.33 519.489 916.77C517.482 915.21 514.16 914.43 509.524 914.43C500.365 914.43 493.99 917.678 490.4 924.175V1005.54H477.127V924.302C476.986 920.841 475.926 918.33 473.947 916.77C471.94 915.21 468.689 914.43 464.194 914.43C454.384 914.43 447.826 917.579 444.518 923.877ZM568.127 923.877V1005.54H554.77V904.472H568.127V913.919H570.714C573.06 910.231 575.803 907.507 578.941 905.748C582.079 903.989 586.404 903.11 591.916 903.11C603.055 903.11 609.896 906.982 612.44 914.727H615.239C617.5 911.124 620.398 908.287 623.932 906.216C627.437 904.145 631.96 903.11 637.501 903.11C644.88 903.11 650.392 904.826 654.039 908.259C657.714 911.663 659.552 917.394 659.552 925.451V1005.54H646.279V924.302C646.138 920.841 645.078 918.33 643.099 916.77C641.092 915.21 637.77 914.43 633.134 914.43C623.946 914.43 617.557 917.678 613.967 924.175V1005.54H600.737V924.302C600.595 920.841 599.521 918.33 597.514 916.77C595.535 915.21 592.298 914.43 587.803 914.43C577.994 914.43 571.435 917.579 568.127 923.877ZM709.547 1006.77C698.154 1006.77 690.026 1004.97 685.164 1001.37C680.302 997.767 677.687 991.88 677.319 983.71C677.065 978.603 676.881 972.574 676.768 965.624C676.655 958.701 676.655 951.751 676.768 944.771C676.881 937.764 677.065 931.664 677.319 926.473C677.687 918.103 680.372 912.117 685.376 908.514C690.38 904.911 698.437 903.11 709.547 903.11C720.035 903.11 727.625 904.869 732.318 908.387C737.011 911.933 739.598 917.749 740.078 925.834C740.219 928.274 740.361 932.501 740.502 938.516C740.643 944.559 740.431 950.97 739.866 957.751H690.295C690.295 962.12 690.323 966.546 690.38 971.028C690.436 975.539 690.578 980.22 690.804 985.071C690.86 988.873 692.302 991.511 695.129 992.987C697.956 994.433 702.621 995.157 709.123 995.157C715.54 995.157 720.063 994.433 722.692 992.987C725.293 991.511 726.735 988.873 727.017 985.071C727.244 981.27 727.244 976.078 727.017 969.496H739.866C740.205 971.51 740.361 973.851 740.333 976.518C740.304 979.184 740.219 981.582 740.078 983.71C739.598 991.88 737.124 997.767 732.657 1001.37C728.219 1004.97 720.515 1006.77 709.547 1006.77ZM690.295 946.729H727.229C727.371 942.02 727.442 937.523 727.442 933.239C727.442 928.927 727.3 925.976 727.017 924.387C726.735 920.926 725.251 918.458 722.565 916.983C719.879 915.479 715.54 914.727 709.547 914.727C702.847 914.727 698.069 915.479 695.214 916.983C692.33 918.458 690.86 920.926 690.804 924.387C690.578 928.416 690.422 932.26 690.337 935.92C690.224 939.608 690.21 943.211 690.295 946.729ZM771.118 923.877V1005.54H757.761V904.472H771.118V913.919H774.002C775.811 910.458 778.2 907.791 781.168 905.918C784.137 904.046 787.826 903.11 792.236 903.11C798.851 903.11 803.77 904.855 806.993 908.344C810.215 911.834 811.827 917.877 811.827 926.473C811.827 928.345 811.756 930.558 811.615 933.111C811.473 935.693 811.261 937.977 810.979 939.963H798.13C798.271 939.282 798.356 938.076 798.384 936.346C798.441 934.615 798.483 932.884 798.512 931.154C798.54 929.423 798.554 928.246 798.554 927.622C798.554 922.487 797.692 919.011 795.967 917.196C794.243 915.352 791.487 914.43 787.698 914.43C779.613 914.43 774.087 917.579 771.118 923.877ZM888.918 939.963H875.858C876.14 937.551 876.268 934.785 876.239 931.664C876.211 928.544 876.197 926.118 876.197 924.387C876.112 920.728 874.67 918.203 871.872 916.813C869.101 915.423 864.536 914.727 858.175 914.727C851.701 914.727 847.079 915.423 844.309 916.813C841.538 918.203 840.125 920.728 840.068 924.387C839.588 935.282 839.347 945.41 839.347 954.772C839.347 964.162 839.588 974.262 840.068 985.071C840.125 988.873 841.538 991.511 844.309 992.987C847.079 994.433 851.673 995.157 858.09 995.157C864.423 995.157 869.002 994.433 871.829 992.987C874.656 991.511 876.112 988.873 876.197 985.071C876.197 983.199 876.211 980.929 876.239 978.262C876.268 975.596 876.14 972.674 875.858 969.496H888.918C889.257 971.51 889.413 973.851 889.385 976.518C889.356 979.184 889.272 981.582 889.13 983.71C888.706 991.88 886.176 997.767 881.54 1001.37C876.875 1004.97 869.059 1006.77 858.09 1006.77C847.037 1006.77 839.107 1004.97 834.301 1001.37C829.524 997.767 826.951 991.88 826.583 983.71C826.329 978.603 826.145 972.574 826.032 965.624C825.919 958.701 825.919 951.751 826.032 944.771C826.145 937.764 826.329 931.664 826.583 926.473C826.951 918.103 829.566 912.117 834.428 908.514C839.291 904.911 847.206 903.11 858.175 903.11C869.087 903.11 876.932 904.869 881.709 908.387C886.515 911.933 888.989 917.749 889.13 925.834C889.272 927.934 889.356 930.317 889.385 932.984C889.413 935.65 889.257 937.977 888.918 939.963ZM937.047 1006.77C925.655 1006.77 917.527 1004.97 912.665 1001.37C907.802 997.767 905.202 991.88 904.862 983.71C904.58 978.603 904.382 972.574 904.269 965.624C904.184 958.701 904.184 951.751 904.269 944.771C904.382 937.764 904.58 931.664 904.862 926.473C905.202 918.103 907.873 912.117 912.877 908.514C917.881 904.911 925.937 903.11 937.047 903.11C947.536 903.11 955.126 904.869 959.819 908.387C964.512 911.933 967.098 917.749 967.579 925.834C967.72 928.274 967.862 932.501 968.003 938.516C968.144 944.559 967.932 950.97 967.367 957.751H917.796C917.796 962.12 917.824 966.546 917.881 971.028C917.965 975.539 918.107 980.22 918.305 985.071C918.389 988.873 919.845 991.511 922.672 992.987C925.499 994.433 930.15 995.157 936.623 995.157C943.041 995.157 947.564 994.433 950.193 992.987C952.822 991.511 954.278 988.873 954.561 985.071C954.758 981.27 954.758 976.078 954.561 969.496H967.367C967.734 971.51 967.89 973.851 967.833 976.518C967.805 979.184 967.72 981.582 967.579 983.71C967.098 991.88 964.639 997.767 960.2 1001.37C955.734 1004.97 948.016 1006.77 937.047 1006.77ZM917.796 946.729H954.773C954.886 942.02 954.942 937.523 954.942 933.239C954.942 928.927 954.815 925.976 954.561 924.387C954.278 920.926 952.794 918.458 950.108 916.983C947.422 915.479 943.069 914.727 937.047 914.727C930.348 914.727 925.57 915.479 922.715 916.983C919.859 918.458 918.389 920.926 918.305 924.387C918.107 928.416 917.951 932.26 917.838 935.92C917.753 939.608 917.739 943.211 917.796 946.729ZM1054.21 1006.77C1043.1 1006.77 1035.4 1004.97 1031.1 1001.37C1026.78 997.767 1024.44 991.88 1024.1 983.71C1023.96 981.582 1023.88 979.184 1023.85 976.518C1023.82 973.851 1023.93 971.51 1024.19 969.496H1036.32C1036.18 972.674 1036.12 975.596 1036.15 978.262C1036.18 980.929 1036.23 983.199 1036.32 985.071C1036.37 988.873 1037.7 991.511 1040.3 992.987C1042.88 994.433 1047.51 995.157 1054.21 995.157C1061.05 995.157 1065.87 994.433 1068.67 992.987C1071.47 991.511 1072.97 988.873 1073.17 985.071C1073.36 982.717 1073.51 980.972 1073.59 979.837C1073.65 978.674 1073.65 977.028 1073.59 974.901C1073.39 971.354 1072.46 968.617 1070.79 966.687C1069.12 964.758 1065.53 963.368 1060.02 962.517L1047.89 959.708C1041.7 958.403 1036.91 956.744 1033.52 954.729C1030.13 952.715 1027.75 950.105 1026.39 946.899C1025.01 943.665 1024.17 939.594 1023.89 934.686C1023.69 932.189 1023.86 929.452 1024.4 926.473C1024.54 918.103 1026.8 912.117 1031.19 908.514C1035.57 904.911 1043.55 903.11 1055.14 903.11C1066.25 903.11 1073.97 904.869 1078.3 908.387C1082.62 911.933 1084.98 917.749 1085.38 925.834C1085.38 927.934 1085.36 930.317 1085.34 932.984C1085.31 935.65 1085.18 937.977 1084.95 939.963H1072.45C1072.78 937.551 1072.94 934.785 1072.91 931.664C1072.88 928.544 1072.8 926.118 1072.66 924.387C1072.57 920.728 1071.31 918.203 1068.88 916.813C1066.42 915.423 1061.84 914.727 1055.14 914.727C1048.39 914.727 1043.78 915.423 1041.32 916.813C1038.89 918.203 1037.53 920.728 1037.25 924.387C1037.16 926.118 1037.07 927.565 1036.95 928.728C1036.81 929.863 1036.77 931.437 1036.83 933.452C1037.02 935.863 1037.39 938.005 1037.93 939.878C1038.44 941.75 1039.61 943.296 1041.45 944.516C1043.26 945.708 1046.24 946.616 1050.39 947.24L1061.97 949.665C1070.4 951.396 1076.54 954.077 1080.42 957.708C1084.29 961.34 1086.23 966.829 1086.23 974.177C1086.23 975.681 1086.2 977.298 1086.14 979.028C1086.11 980.759 1086.03 982.433 1085.89 984.05C1085.41 992.135 1082.88 997.951 1078.3 1001.5C1073.72 1005.02 1065.69 1006.77 1054.21 1006.77ZM1134.36 1006.77C1123.59 1006.77 1116.32 1004.97 1112.56 1001.37C1108.8 997.767 1106.92 991.88 1106.92 983.71V916.089H1096.96V904.472H1107.22V875.789H1120.36V904.472H1143.13V916.089H1120.28V985.156C1120.28 988.986 1121.07 991.625 1122.65 993.072C1124.24 994.519 1128.24 995.242 1134.65 995.242C1137.28 995.242 1139.3 995.199 1140.72 995.114C1142.13 995.001 1143.77 994.916 1145.64 994.859V1005.97C1143.97 1006.25 1142.17 1006.45 1140.25 1006.56C1138.3 1006.7 1136.33 1006.77 1134.36 1006.77ZM1186.94 1006.77C1175.69 1006.77 1167.74 1004.85 1163.11 1000.99C1158.5 997.1 1156.01 990.646 1155.64 981.624C1155.25 976.518 1154.98 970.829 1154.84 964.56C1154.7 958.29 1154.7 951.963 1154.84 945.58C1154.98 939.225 1155.25 933.452 1155.64 928.26C1156.01 919.238 1158.51 912.784 1163.15 908.897C1167.81 905.039 1175.74 903.11 1186.94 903.11C1198.25 903.11 1206.16 905.039 1210.68 908.897C1215.21 912.784 1217.64 919.238 1217.98 928.26C1218.4 933.367 1218.68 939.055 1218.83 945.325C1218.97 951.594 1218.97 957.907 1218.83 964.262C1218.68 970.588 1218.4 976.376 1217.98 981.624C1217.64 990.561 1215.21 996.987 1210.68 1000.9C1206.16 1004.82 1198.25 1006.77 1186.94 1006.77ZM1186.94 995.157C1193.27 995.157 1197.78 994.377 1200.46 992.816C1203.18 991.256 1204.63 988.674 1204.83 985.071C1205.51 974.262 1205.85 964.219 1205.85 954.942C1205.85 945.665 1205.51 935.622 1204.83 924.813C1204.63 921.153 1203.22 918.557 1200.59 917.025C1197.96 915.493 1193.41 914.727 1186.94 914.727C1180.44 914.727 1175.86 915.493 1173.2 917.025C1170.54 918.557 1169.11 921.153 1168.92 924.813C1168.29 935.622 1167.97 945.679 1167.94 954.985C1167.88 964.319 1168.21 974.347 1168.92 985.071C1169.06 988.674 1170.53 991.256 1173.33 992.816C1176.12 994.377 1180.66 995.157 1186.94 995.157ZM1250.38 923.877V1005.54H1237.02V904.472H1250.38V913.919H1253.26C1255.07 910.458 1257.46 907.791 1260.42 905.918C1263.39 904.046 1267.08 903.11 1271.49 903.11C1278.11 903.11 1283.03 904.855 1286.25 908.344C1289.44 911.834 1291.04 917.877 1291.04 926.473C1291.04 928.345 1290.98 930.558 1290.87 933.111C1290.73 935.693 1290.52 937.977 1290.24 939.963H1277.39C1277.53 939.282 1277.61 938.076 1277.64 936.346C1277.7 934.615 1277.74 932.884 1277.77 931.154C1277.8 929.423 1277.81 928.246 1277.81 927.622C1277.81 922.487 1276.95 919.011 1275.22 917.196C1273.5 915.352 1270.74 914.43 1266.96 914.43C1258.87 914.43 1253.34 917.579 1250.38 923.877ZM1338.07 1006.77C1326.68 1006.77 1318.55 1004.97 1313.69 1001.37C1308.82 997.767 1306.21 991.88 1305.84 983.71C1305.59 978.603 1305.4 972.574 1305.29 965.624C1305.18 958.701 1305.18 951.751 1305.29 944.771C1305.4 937.764 1305.59 931.664 1305.84 926.473C1306.21 918.103 1308.89 912.117 1313.9 908.514C1318.9 904.911 1326.96 903.11 1338.07 903.11C1348.56 903.11 1356.15 904.869 1360.84 908.387C1365.53 911.933 1368.12 917.749 1368.6 925.834C1368.74 928.274 1368.88 932.501 1369.02 938.516C1369.14 944.559 1368.92 950.97 1368.39 957.751H1318.82C1318.82 962.12 1318.84 966.546 1318.9 971.028C1318.96 975.539 1319.1 980.22 1319.33 985.071C1319.38 988.873 1320.82 991.511 1323.65 992.987C1326.48 994.433 1331.14 995.157 1337.64 995.157C1344.06 995.157 1348.58 994.433 1351.21 992.987C1353.81 991.511 1355.26 988.873 1355.54 985.071C1355.76 981.27 1355.76 976.078 1355.54 969.496H1368.39C1368.73 971.51 1368.88 973.851 1368.85 976.518C1368.83 979.184 1368.74 981.582 1368.6 983.71C1368.12 991.88 1365.64 997.767 1361.18 1001.37C1356.74 1004.97 1349.04 1006.77 1338.07 1006.77ZM1318.82 946.729H1355.75C1355.89 942.02 1355.96 937.523 1355.96 933.239C1355.96 928.927 1355.82 925.976 1355.54 924.387C1355.26 920.926 1353.77 918.458 1351.09 916.983C1348.4 915.479 1344.06 914.727 1338.07 914.727C1331.37 914.727 1326.58 915.479 1323.69 916.983C1320.84 918.458 1319.38 920.926 1319.33 924.387C1319.1 928.416 1318.94 932.26 1318.86 935.92C1318.75 939.608 1318.73 943.211 1318.82 946.729Z" fill="black"/>
</g>
</g>
</g>
</g>
</g>
</g>
</g>
<g clip-path="url(#clip11_1_2)">
<g clip-path="url(#clip12_1_2)">
<path d="M1017.05 357H720.326C719.699 357 719.073 357.114 718.504 357.342H718.447C717.82 357.626 717.251 358.025 716.795 358.48L539.424 535.852C539.424 535.852 539.424 535.909 539.367 535.909C539.196 536.137 538.968 536.365 538.854 536.592C538.74 536.706 538.683 536.877 538.626 536.991C538.528 537.131 538.451 537.284 538.399 537.447C538.285 537.617 538.228 537.788 538.228 537.959C538.171 538.073 538.114 538.244 538.114 538.358C538 538.699 538 538.984 538 539.326V836.046C538 838.779 540.221 841 542.954 841H839.902C840.193 840.943 840.42 840.943 840.648 840.886C840.813 840.886 840.99 840.767 841.161 840.767C841.274 840.71 841.445 840.653 841.553 840.653C841.724 840.533 841.952 840.425 842.129 840.305C842.242 840.248 842.299 840.248 842.413 840.191L843.21 839.565L1020.52 662.262C1021.43 661.351 1022 660.098 1022 658.674V361.954C1022 361.303 1021.87 360.659 1021.62 360.058C1021.37 359.457 1021.01 358.911 1020.55 358.451C1020.09 357.991 1019.54 357.626 1018.94 357.377C1018.34 357.128 1017.7 357 1017.05 357ZM722.376 366.908H812.115L644.594 534.372H554.855L722.376 366.908ZM834.72 831.149H547.908V544.28H834.72V831.149ZM837.624 534.372H747.885L915.406 366.908H1005.15L837.624 534.372Z" fill="black"/>
</g>
</g>
</g>
</g>
</g>
</g>
<defs>
<clipPath id="clip0_1_2">
<rect width="1500" height="1682" fill="white"/>
</clipPath>
<clipPath id="clip1_1_2">
<rect width="1500" height="1682" fill="white" transform="translate(-2.33633)"/>
</clipPath>
<clipPath id="clip2_1_2">
<rect width="1495.11" height="1682" fill="white" transform="translate(0.108231)"/>
</clipPath>
<clipPath id="clip3_1_2">
<rect width="1495.11" height="1682" fill="white" transform="translate(0.108231)"/>
</clipPath>
<clipPath id="clip4_1_2">
<rect width="1176" height="330.414" fill="white" transform="translate(192 676)"/>
</clipPath>
<clipPath id="clip5_1_2">
<rect width="1176" height="330.414" fill="white" transform="translate(192 676)"/>
</clipPath>
<clipPath id="clip6_1_2">
<rect width="1177.22" height="331.144" fill="white" transform="translate(191.829 675.635)"/>
</clipPath>
<clipPath id="clip7_1_2">
<rect width="1177.22" height="130.994" fill="white" transform="translate(191.829 875.784)"/>
</clipPath>
<clipPath id="clip8_1_2">
<rect width="1177.22" height="130.994" fill="white" transform="translate(191.829 875.784)"/>
</clipPath>
<clipPath id="clip9_1_2">
<rect width="1177.22" height="130.994" fill="white" transform="translate(191.829 875.784)"/>
</clipPath>
<clipPath id="clip10_1_2">
<rect width="1177.22" height="130.994" fill="white" transform="translate(191.829 875.784)"/>
</clipPath>
<clipPath id="clip11_1_2">
<rect width="484" height="484" fill="white" transform="translate(538 357)"/>
</clipPath>
<clipPath id="clip12_1_2">
<rect width="484" height="484" fill="white" transform="translate(538 357)"/>
</clipPath>
</defs>
</svg>
