<svg width="96" height="96" viewBox="0 0 96 96" fill="none" xmlns="http://www.w3.org/2000/svg">
<g clip-path="url(#clip0_3_2)">
<g clip-path="url(#clip1_3_2)">
<g clip-path="url(#clip2_3_2)">
<g clip-path="url(#clip3_3_2)">
<path d="M6.27442 60.592L7.38868 61.8341L6.83155 60.2194C6.69227 59.4741 5.71729 60.3436 6.27442 60.592ZM7.52797 59.8467C7.94581 60.4678 8.36366 61.0889 8.36366 61.7099C8.36366 62.5794 9.19936 62.952 9.89577 63.2005C8.92079 62.2068 8.36366 59.4741 7.52797 59.8467ZM61.0124 7.18108C63.3802 7.18108 65.6088 6.93266 68.1158 7.42951C74.2443 8.79583 79.3977 11.5285 82.8798 15.379L92.6296 29.2907C93.0474 32.7686 93.8831 36.6192 93.7438 40.8424C94.7188 40.8424 94.5795 39.6003 95.6938 39.3519C94.5795 41.8361 94.0224 44.9414 93.7438 48.5435C93.0474 46.5561 93.7438 43.575 93.8831 41.9603C92.9081 43.3266 92.351 42.3329 92.351 41.7119C92.4903 40.7182 91.9331 40.8424 91.5153 40.4698C89.9832 39.2276 89.0082 37.8613 87.8939 35.7497C88.5904 34.135 88.7296 31.775 86.5011 30.5328C85.8047 30.1602 84.969 29.5391 84.5512 28.5455C83.994 27.1791 83.0191 25.5644 83.2976 23.4528C83.4369 22.8317 81.2084 24.8191 79.9548 23.9496C74.5228 20.5959 69.0908 16.7454 62.5445 13.5159C59.0625 13.5159 56.5554 12.398 55.3018 11.0316C54.1876 9.78952 55.0233 8.17477 56.6947 8.05056C57.6697 8.05056 58.7839 7.80214 59.6196 8.29898C59.7589 7.80214 60.316 7.18108 61.0124 7.18108ZM47.2235 4.32422L47.502 4.44843C48.8949 4.69685 49.5913 6.43581 51.1234 5.81476C51.1234 6.68424 51.2627 7.55372 50.9841 8.17477C50.5662 9.16847 49.3127 9.16847 48.3377 9.16847C39.0058 8.67162 33.5738 12.1495 27.8632 15.1306C26.3311 16.0001 24.6597 16.6212 23.4062 17.7391C17.417 22.7075 10.8707 27.3033 9.33864 36.495L8.0851 46.6803C7.94581 47.7982 6.55299 48.9161 6.83155 50.2825L7.80653 56.3688C6.83156 55.4993 6.27442 56.6172 6.55299 57.1141C6.69227 57.4867 7.2494 58.7288 8.0851 57.6109C9.19936 59.4741 10.3136 63.0762 11.8457 64.691C16.5813 69.6594 22.7098 74.1311 27.7239 78.6027C28.9775 78.3543 29.9524 78.3543 30.231 77.609C30.6489 78.3543 29.8132 79.0995 29.1167 79.2237C31.3453 80.4659 33.8524 81.5838 37.1951 81.8322C41.5129 82.0806 45.5521 82.7017 49.3127 83.5711C51.2627 83.0743 53.2126 82.8259 55.3018 82.7017C55.9983 82.7017 56.4161 81.708 57.2518 81.4595L57.3911 80.2174C58.2268 81.3353 58.0875 79.8448 57.5304 79.0995C58.5054 79.8448 58.7839 80.4659 59.2018 80.9627C59.2018 80.5901 60.316 79.2237 60.316 80.8385L60.5946 79.2237C61.0124 78.9753 61.1517 80.5901 61.5696 79.4722C61.9874 78.3543 62.8231 79.2237 63.6588 78.8511C63.3802 79.3479 63.5195 80.3416 64.4945 79.7206L65.6087 78.8511C66.3052 80.3416 67.4194 79.7206 67.9766 79.4722C74.105 75.9942 80.2334 71.8953 86.0833 67.7963L85.944 69.411L86.6404 67.4236C87.3368 68.0447 87.894 67.5479 88.1725 67.1752C89.0082 65.9331 90.1225 64.691 91.9331 63.5731C89.7046 68.9142 87.0583 73.1374 83.7155 76.6153L82.3226 78.1058C82.3226 78.9753 82.0441 80.0932 80.9298 80.2174C80.3727 80.3416 79.2584 79.969 78.4227 80.7143C78.0049 81.2111 79.3977 82.2048 78.2835 81.4595C77.3085 80.8385 76.3335 81.4595 75.2192 81.708C74.3836 81.9564 75.7764 82.7017 76.0549 83.1985C76.3335 83.6953 76.6121 84.1922 76.4728 84.8133L74.9407 83.3227C73.13 84.1922 72.0157 85.8069 70.4836 87.0491C69.7872 87.5459 70.0658 88.4154 70.0658 89.1607C69.0908 89.1607 67.9766 88.9122 67.4194 89.4091C67.0016 89.9059 67.1409 90.6512 67.1409 91.3965C65.748 91.2722 65.6087 89.4091 64.3552 89.7817C63.1017 90.0301 61.7088 90.1543 60.5946 90.7754C61.4303 92.2659 59.2018 91.3965 59.4803 91.6449C57.3911 90.527 55.5804 89.6575 53.3519 90.4028C48.6163 89.0364 42.7664 89.6575 38.4487 90.1543C38.4487 89.5333 38.588 88.9122 38.3094 88.788C38.0308 89.4091 37.1951 89.1607 37.3344 89.1607C34.688 87.5459 32.0417 86.5522 29.256 85.1859C26.7489 85.4343 24.3811 84.3164 23.6847 83.6954C21.7348 82.0806 19.5063 82.9501 17.6956 82.5774C13.7957 81.708 12.4029 78.1058 11.985 75.6216C11.7064 74.3795 10.5922 73.8826 10.1743 74.0069C8.36366 68.79 5.57801 64.0699 3.34949 59.2257C2.79236 57.9836 2.93165 56.7415 2.93165 55.3751C3.62806 55.6236 4.32447 55.4993 4.18519 54.6299C3.48878 50.5309 1.81739 47.4256 0.00671387 44.4445C0.981691 40.2213 1.12097 35.2529 3.34949 31.5265C5.29945 28.1728 8.92079 26.4339 11.4279 23.577C12.2636 22.5833 12.2636 21.217 13.0993 20.3475C15.8849 17.8633 18.6706 15.2548 21.7348 13.019C23.1276 12.0253 24.799 13.019 26.8882 12.6464C27.5846 10.4106 30.3703 8.4232 33.0167 9.04425C34.1309 9.29268 36.3594 6.68424 37.0559 6.43581C38.1701 6.06318 37.613 7.4295 37.613 8.29898C40.2593 6.43581 43.8807 5.44212 47.2235 4.32422Z" fill="black"/>
<g clip-path="url(#clip4_3_2)">
<g clip-path="url(#clip5_3_2)">
<path d="M63.6589 34H44.6688C44.6288 34 44.5887 34.0065 44.5522 34.0195H44.5486C44.5085 34.0357 44.4721 34.0585 44.4429 34.0845L33.0911 44.208C33.0911 44.208 33.0911 44.2112 33.0875 44.2112C33.0765 44.2242 33.062 44.2372 33.0547 44.2502C33.0474 44.2567 33.0437 44.2665 33.0401 44.273C33.0338 44.2809 33.0289 44.2897 33.0255 44.299C33.0182 44.3087 33.0146 44.3185 33.0146 44.3282C33.0109 44.3347 33.0073 44.3445 33.0073 44.351C33 44.3705 33 44.3867 33 44.4062V61.3415C33 61.4975 33.1421 61.6243 33.317 61.6243H52.3217C52.3403 61.621 52.3549 61.621 52.3695 61.6178C52.38 61.6178 52.3913 61.6109 52.4023 61.6109C52.4096 61.6077 52.4205 61.6044 52.4274 61.6044C52.4384 61.5976 52.4529 61.5914 52.4642 61.5846C52.4715 61.5814 52.4752 61.5814 52.4824 61.5781L52.5335 61.5424L63.8812 51.4228C63.9396 51.3708 63.976 51.2993 63.976 51.218V34.2827C63.976 34.2456 63.9678 34.2088 63.9519 34.1745C63.9359 34.1402 63.9126 34.1091 63.8831 34.0828C63.8537 34.0566 63.8187 34.0357 63.7803 34.0215C63.7418 34.0073 63.7006 34 63.6589 34ZM44.8 34.5655H50.5433L39.822 44.1235H34.0787L44.8 34.5655ZM51.9901 61.062H33.6341V44.689H51.9901V61.062ZM52.176 44.1235H46.4327L57.154 34.5655H62.8973L52.176 44.1235Z" fill="black"/>
</g>
</g>
</g>
</g>
</g>
</g>
<defs>
<clipPath id="clip0_3_2">
<rect width="96" height="96" fill="white"/>
</clipPath>
<clipPath id="clip1_3_2">
<rect width="96" height="96" fill="white" transform="translate(-0.149521)"/>
</clipPath>
<clipPath id="clip2_3_2">
<rect width="95.6871" height="96" fill="white" transform="translate(0.00692749)"/>
</clipPath>
<clipPath id="clip3_3_2">
<rect width="95.6871" height="96" fill="white" transform="translate(0.00692749)"/>
</clipPath>
<clipPath id="clip4_3_2">
<rect width="30.976" height="27.6243" fill="white" transform="translate(33 34)"/>
</clipPath>
<clipPath id="clip5_3_2">
<rect width="30.976" height="27.6243" fill="white" transform="translate(33 34)"/>
</clipPath>
</defs>
</svg>
